<svg width="42" height="42" viewBox="0 0 42 42" fill="none" xmlns="http://www.w3.org/2000/svg">
<circle cx="21" cy="21" r="21" fill="#0E654D"/>
<path d="M27.9049 21.2566C27.9008 21.5877 27.6514 21.8584 27.3316 21.8977L27.2427 21.9026L14.1617 21.741C13.8005 21.7365 13.5112 21.4401 13.5157 21.0788C13.5198 20.7477 13.7692 20.4771 14.089 20.4377L14.1778 20.4329L27.2589 20.5945C27.6201 20.599 27.9093 20.8954 27.9049 21.2566Z" fill="white"/>
<path d="M19.8479 25.948C20.1008 26.2061 20.0965 26.6202 19.8385 26.873C19.6039 27.1029 19.2403 27.1203 18.9862 26.9277L18.9135 26.8636L13.7024 21.545C13.4719 21.3098 13.4551 20.9449 13.6493 20.6908L13.7138 20.6181L19.0548 15.4291C19.3139 15.1774 19.728 15.1833 19.9797 15.4424C20.2086 15.678 20.2244 16.0416 20.0307 16.2949L19.9664 16.3674L15.0968 21.099L19.8479 25.948Z" fill="white"/>
</svg>
