<svg width="19" height="15" viewBox="0 0 19 15" fill="none" xmlns="http://www.w3.org/2000/svg">
<path fill-rule="evenodd" clip-rule="evenodd" d="M9.54367 5.47984C8.40481 5.47984 7.47916 6.40634 7.47916 7.5452C7.47916 8.68321 8.40481 9.60886 9.54367 9.60886C10.6825 9.60886 11.609 8.68321 11.609 7.5452C11.609 6.40634 10.6825 5.47984 9.54367 5.47984M9.54358 10.8934C7.69657 10.8934 6.19464 9.39145 6.19464 7.54529C6.19464 5.69828 7.69657 4.1955 9.54358 4.1955C11.3906 4.1955 12.8934 5.69828 12.8934 7.54529C12.8934 9.39145 11.3906 10.8934 9.54358 10.8934" fill="black"/>
<mask id="mask0_270_5356" style="mask-type:alpha" maskUnits="userSpaceOnUse" x="0" y="0" width="19" height="15">
<path fill-rule="evenodd" clip-rule="evenodd" d="M0.981384 0.649597H18.107V14.4401H0.981384V0.649597Z" fill="white"/>
</mask>
<g mask="url(#mask0_270_5356)">
<path fill-rule="evenodd" clip-rule="evenodd" d="M2.32567 7.54453C3.91836 11.063 6.60111 13.1549 9.54417 13.1558C12.4872 13.1549 15.17 11.063 16.7627 7.54453C15.17 4.0269 12.4872 1.93499 9.54417 1.93413C6.60197 1.93499 3.91836 4.0269 2.32567 7.54453V7.54453ZM9.54576 14.4404H9.54233H9.54147C5.99987 14.4378 2.81962 11.9554 1.0334 7.79816C0.964044 7.63632 0.964044 7.45308 1.0334 7.29124C2.81962 3.13482 6.00073 0.652442 9.54147 0.649873C9.54319 0.649017 9.54319 0.649017 9.54404 0.649873C9.54576 0.649017 9.54576 0.649017 9.54661 0.649873C13.0882 0.652442 16.2685 3.13482 18.0547 7.29124C18.1249 7.45308 18.1249 7.63632 18.0547 7.79816C16.2693 11.9554 13.0882 14.4378 9.54661 14.4404H9.54576Z" fill="black"/>
<path d="M1.5 1L17.0223 13.6119" stroke="black"/>
</g>
</svg>
