<svg width="15" height="19" viewBox="0 0 15 19" fill="none" xmlns="http://www.w3.org/2000/svg">
<path fill-rule="evenodd" clip-rule="evenodd" d="M11.6619 7.9171C11.3048 7.9171 11.0149 7.62727 11.0149 7.27014V5.41811C11.0149 3.61007 9.54418 2.13932 7.73614 2.13932H7.72234C6.84851 2.13932 6.02989 2.47574 5.41139 3.08905C4.78859 3.70496 4.4444 4.52703 4.44095 5.40345V7.27014C4.44095 7.62727 4.15112 7.9171 3.79399 7.9171C3.43687 7.9171 3.14703 7.62727 3.14703 7.27014V5.41811C3.15221 4.17595 3.63269 3.02953 4.49961 2.17037C5.3674 1.31035 6.51295 0.812617 7.73873 0.845396C10.2576 0.845396 12.3089 2.89669 12.3089 5.41811V7.27014C12.3089 7.62727 12.019 7.9171 11.6619 7.9171" fill="black"/>
<path fill-rule="evenodd" clip-rule="evenodd" d="M4.43229 7.85595C2.98482 7.85595 1.80822 9.03255 1.80822 10.48V14.1798C1.80822 15.6272 2.98482 16.8038 4.43229 16.8038H11.0235C12.4701 16.8038 13.6476 15.6272 13.6476 14.1798V10.48C13.6476 9.03255 12.4701 7.85595 11.0235 7.85595H4.43229ZM11.0235 18.0976H4.43227C2.27143 18.0976 0.514282 16.3404 0.514282 14.1796V10.4798C0.514282 8.31897 2.27143 6.56183 4.43227 6.56183H11.0235C13.1844 6.56183 14.9415 8.31897 14.9415 10.4798V14.1796C14.9415 16.3404 13.1844 18.0976 11.0235 18.0976V18.0976Z" fill="black"/>
<path fill-rule="evenodd" clip-rule="evenodd" d="M7.7271 13.9345C7.36998 13.9345 7.08014 13.6447 7.08014 13.2876V11.3717C7.08014 11.0146 7.36998 10.7247 7.7271 10.7247C8.08422 10.7247 8.37406 11.0146 8.37406 11.3717V13.2876C8.37406 13.6447 8.08422 13.9345 7.7271 13.9345" fill="black"/>
</svg>
