<svg width="18" height="18" viewBox="0 0 18 18" fill="none" xmlns="http://www.w3.org/2000/svg">
<rect width="18" height="18" fill="white"/>
<mask id="mask0_270_4922" style="mask-type:alpha" maskUnits="userSpaceOnUse" x="3" y="10" width="12" height="7">
<path fill-rule="evenodd" clip-rule="evenodd" d="M3 10.8721H14.8799V16.4026H3V10.8721Z" fill="white"/>
</mask>
<g mask="url(#mask0_270_4922)">
<path fill-rule="evenodd" clip-rule="evenodd" d="M8.94063 11.9971C5.74488 11.9971 4.12488 12.5461 4.12488 13.6298C4.12488 14.7233 5.74488 15.2776 8.94063 15.2776C12.1356 15.2776 13.7549 14.7286 13.7549 13.6448C13.7549 12.5513 12.1356 11.9971 8.94063 11.9971M8.94063 16.4026C7.47138 16.4026 2.99988 16.4026 2.99988 13.6298C2.99988 11.1578 6.39063 10.8721 8.94063 10.8721C10.4099 10.8721 14.8799 10.8721 14.8799 13.6448C14.8799 16.1168 11.4899 16.4026 8.94063 16.4026" fill="#001833"/>
</g>
<mask id="mask1_270_4922" style="mask-type:alpha" maskUnits="userSpaceOnUse" x="4" y="1" width="9" height="9">
<path fill-rule="evenodd" clip-rule="evenodd" d="M4.9574 1.50009H12.9224V9.46404H4.9574V1.50009Z" fill="white"/>
</mask>
<g mask="url(#mask1_270_4922)">
<path fill-rule="evenodd" clip-rule="evenodd" d="M8.94068 2.57082C7.33493 2.57082 6.02843 3.87657 6.02843 5.48232C6.02318 7.08282 7.31993 8.38782 8.91893 8.39382L8.94068 8.92932V8.39382C10.5457 8.39382 11.8514 7.08732 11.8514 5.48232C11.8514 3.87657 10.5457 2.57082 8.94068 2.57082M8.94067 9.46407H8.91667C6.72517 9.45732 4.94992 7.67007 4.95742 5.48007C4.95742 3.28632 6.74392 1.49982 8.94067 1.49982C11.1367 1.49982 12.9224 3.28632 12.9224 5.48232C12.9224 7.67832 11.1367 9.46407 8.94067 9.46407" fill="#001833"/>
</g>
</svg>
