<svg width="19" height="15" viewBox="0 0 19 15" fill="none" xmlns="http://www.w3.org/2000/svg">
<path fill-rule="evenodd" clip-rule="evenodd" d="M9.54361 5.47984C8.40475 5.47984 7.4791 6.40634 7.4791 7.5452C7.4791 8.68321 8.40475 9.60886 9.54361 9.60886C10.6825 9.60886 11.609 8.68321 11.609 7.5452C11.609 6.40634 10.6825 5.47984 9.54361 5.47984ZM9.54352 10.8934C7.69651 10.8934 6.19458 9.39145 6.19458 7.54529C6.19458 5.69828 7.69651 4.1955 9.54352 4.1955C11.3905 4.1955 12.8933 5.69828 12.8933 7.54529C12.8933 9.39145 11.3905 10.8934 9.54352 10.8934Z" fill="black"/>
<mask id="mask0_270_5454" style="mask-type:alpha" maskUnits="userSpaceOnUse" x="0" y="0" width="19" height="15">
<path fill-rule="evenodd" clip-rule="evenodd" d="M0.981323 0.649597H18.1069V14.4401H0.981323V0.649597Z" fill="white"/>
</mask>
<g mask="url(#mask0_270_5454)">
<path fill-rule="evenodd" clip-rule="evenodd" d="M2.32561 7.54453C3.9183 11.063 6.60105 13.1549 9.54411 13.1558C12.4872 13.1549 15.1699 11.063 16.7626 7.54453C15.1699 4.0269 12.4872 1.93499 9.54411 1.93413C6.60191 1.93499 3.9183 4.0269 2.32561 7.54453ZM9.5457 14.4404H9.54227H9.54141C5.99981 14.4378 2.81956 11.9554 1.03334 7.79816C0.963983 7.63632 0.963983 7.45308 1.03334 7.29124C2.81956 3.13482 6.00067 0.652442 9.54141 0.649873C9.54313 0.649017 9.54313 0.649017 9.54398 0.649873C9.5457 0.649017 9.5457 0.649017 9.54655 0.649873C13.0882 0.652442 16.2684 3.13482 18.0546 7.29124C18.1248 7.45308 18.1248 7.63632 18.0546 7.79816C16.2693 11.9554 13.0882 14.4378 9.54655 14.4404H9.5457Z" fill="black"/>
</g>
</svg>
