<svg xmlns="http://www.w3.org/2000/svg" xmlns:xlink="http://www.w3.org/1999/xlink" version="1.1" width="256" height="256" viewBox="0 0 256 256" xml:space="preserve">

<defs>
</defs>
<g style="stroke: none; stroke-width: 0; stroke-dasharray: none; stroke-linecap: butt; stroke-linejoin: miter; stroke-miterlimit: 10; fill: none; fill-rule: nonzero; opacity: 1;" transform="translate(1.4065934065934016 1.4065934065934016) scale(2.81 2.81)" >
	<path d="M 57.262 21.919 l -0.487 7.575 c -0.481 5.753 -4.27 10.698 -9.699 12.66 l 0 0 c -0.678 0.245 -1.389 0.368 -2.099 0.368 h 0 c -0.71 0 -1.421 -0.123 -2.099 -0.368 l 0 0 c -5.429 -1.962 -9.218 -6.907 -9.699 -12.66 l -0.458 -7.575 v -9.19 h 24.784 L 57.262 21.919 z" style="stroke: none; stroke-width: 1; stroke-dasharray: none; stroke-linecap: butt; stroke-linejoin: miter; stroke-miterlimit: 10; fill: rgb(255,224,196); fill-rule: nonzero; opacity: 1;" transform=" matrix(1 0 0 1 0 0) " stroke-linecap="round" />
	<path d="M 52.808 36.785 l 0.041 2.321 c 0 2.526 1.959 4.691 4.656 5.145 L 45 53.773 l -12.505 -9.522 c 2.697 -0.454 4.656 -2.619 4.656 -5.145 l 0.04 -2.321 H 52.808 z" style="stroke: none; stroke-width: 1; stroke-dasharray: none; stroke-linecap: butt; stroke-linejoin: miter; stroke-miterlimit: 10; fill: rgb(255,224,196); fill-rule: nonzero; opacity: 1;" transform=" matrix(1 0 0 1 0 0) " stroke-linecap="round" />
	<path d="M 57.505 44.251 l 6.967 1.173 c 3.67 0.618 6.336 3.565 6.336 7.003 v 26.871 c 0 2.534 -2.054 4.588 -4.588 4.588 h -2.238 H 23.78 c -2.534 0 -4.588 -2.054 -4.588 -4.588 V 52.427 c 0 -3.438 2.666 -6.385 6.336 -7.003 l 6.967 -1.173 l 2.842 2.164 c 5.708 4.347 13.617 4.347 19.325 0 L 57.505 44.251 z" style="stroke: none; stroke-width: 1; stroke-dasharray: none; stroke-linecap: butt; stroke-linejoin: miter; stroke-miterlimit: 10; fill: rgb(214,123,123); fill-rule: nonzero; opacity: 1;" transform=" matrix(1 0 0 1 0 0) " stroke-linecap="round" />
	<polygon points="62.09,83.89 27.91,83.89 25.74,60.01 64.26,60.01 " style="stroke: none; stroke-width: 1; stroke-dasharray: none; stroke-linecap: butt; stroke-linejoin: miter; stroke-miterlimit: 10; fill: rgb(206,211,225); fill-rule: nonzero; opacity: 1;" transform="  matrix(1 0 0 1 0 0) "/>
	<rect x="24.34" y="83.89" rx="0" ry="0" width="41.32" height="5.12" style="stroke: none; stroke-width: 1; stroke-dasharray: none; stroke-linecap: butt; stroke-linejoin: miter; stroke-miterlimit: 10; fill: rgb(190,198,218); fill-rule: nonzero; opacity: 1;" transform=" matrix(1 0 0 1 0 0) "/>
	<path d="M 45 50.284 c -3.937 0 -7.875 -1.25 -11.161 -3.752 l -1.95 -1.485 c -0.439 -0.334 -0.524 -0.962 -0.189 -1.401 c 0.334 -0.439 0.961 -0.525 1.401 -0.189 l 1.95 1.485 c 5.859 4.462 14.04 4.46 19.899 0 l 1.948 -1.485 c 0.441 -0.335 1.067 -0.249 1.402 0.189 c 0.334 0.439 0.249 1.067 -0.189 1.401 l -1.949 1.485 C 52.875 49.032 48.938 50.284 45 50.284 z" style="stroke: none; stroke-width: 1; stroke-dasharray: none; stroke-linecap: butt; stroke-linejoin: miter; stroke-miterlimit: 10; fill: rgb(0,0,0); fill-rule: nonzero; opacity: 1;" transform=" matrix(1 0 0 1 0 0) " stroke-linecap="round" />
	<path d="M 66.22 84.886 H 23.78 c -3.081 0 -5.588 -2.507 -5.588 -5.588 V 52.427 c 0 -3.93 3.016 -7.29 7.17 -7.989 l 6.967 -1.174 c 2.214 -0.373 3.822 -2.122 3.822 -4.159 l 0.01 -0.583 c 0.009 -0.552 0.435 -1.011 1.017 -0.983 c 0.552 0.01 0.992 0.465 0.983 1.017 l -0.01 0.565 c 0 3 -2.309 5.579 -5.49 6.115 l -6.967 1.173 c -3.188 0.537 -5.502 3.068 -5.502 6.017 v 26.871 c 0 1.979 1.609 3.588 3.588 3.588 h 42.44 c 1.979 0 3.588 -1.609 3.588 -3.588 V 52.427 c 0 -2.949 -2.314 -5.48 -5.502 -6.017 l -6.967 -1.173 c -3.181 -0.536 -5.49 -3.114 -5.49 -6.132 l -0.009 -0.471 c -0.01 -0.552 0.43 -1.008 0.982 -1.018 c 0.552 -0.003 1.008 0.43 1.018 0.982 l 0.009 0.489 c 0 2.055 1.608 3.804 3.822 4.177 l 6.967 1.174 c 4.155 0.7 7.17 4.059 7.17 7.989 v 26.871 C 71.808 82.379 69.301 84.886 66.22 84.886 z" style="stroke: none; stroke-width: 1; stroke-dasharray: none; stroke-linecap: butt; stroke-linejoin: miter; stroke-miterlimit: 10; fill: rgb(0,0,0); fill-rule: nonzero; opacity: 1;" transform=" matrix(1 0 0 1 0 0) " stroke-linecap="round" />
	<path d="M 62.092 84.886 H 27.908 c -0.517 0 -0.949 -0.395 -0.996 -0.909 l -2.172 -23.872 c -0.025 -0.28 0.068 -0.558 0.258 -0.765 c 0.189 -0.208 0.458 -0.326 0.738 -0.326 h 38.529 c 0.281 0 0.549 0.118 0.738 0.326 c 0.189 0.207 0.283 0.484 0.258 0.765 l -2.173 23.872 C 63.041 84.492 62.609 84.886 62.092 84.886 z M 28.821 82.886 h 32.357 l 1.991 -21.871 H 26.831 L 28.821 82.886 z" style="stroke: none; stroke-width: 1; stroke-dasharray: none; stroke-linecap: butt; stroke-linejoin: miter; stroke-miterlimit: 10; fill: rgb(0,0,0); fill-rule: nonzero; opacity: 1;" transform=" matrix(1 0 0 1 0 0) " stroke-linecap="round" />
	<path d="M 65.66 90.003 H 24.34 c -0.552 0 -1 -0.447 -1 -1 v -5.117 c 0 -0.553 0.448 -1 1 -1 H 65.66 c 0.553 0 1 0.447 1 1 v 5.117 C 66.661 89.555 66.213 90.003 65.66 90.003 z M 25.34 88.003 H 64.66 v -3.116 H 25.34 V 88.003 z" style="stroke: none; stroke-width: 1; stroke-dasharray: none; stroke-linecap: butt; stroke-linejoin: miter; stroke-miterlimit: 10; fill: rgb(0,0,0); fill-rule: nonzero; opacity: 1;" transform=" matrix(1 0 0 1 0 0) " stroke-linecap="round" />
	<path d="M 45.08 70.212 c -0.13 0 -0.26 -0.03 -0.38 -0.08 c -0.12 -0.05 -0.23 -0.12 -0.33 -0.22 c -0.09 -0.091 -0.16 -0.2 -0.21 -0.32 c -0.05 -0.12 -0.08 -0.25 -0.08 -0.39 c 0 -0.131 0.03 -0.261 0.08 -0.381 c 0.05 -0.119 0.12 -0.23 0.21 -0.319 c 0.38 -0.38 1.05 -0.37 1.42 0 c 0.09 0.09 0.16 0.2 0.22 0.319 c 0.05 0.12 0.07 0.25 0.07 0.381 c 0 0.14 -0.021 0.27 -0.07 0.39 s -0.13 0.23 -0.22 0.32 C 45.6 70.101 45.35 70.212 45.08 70.212 z" style="stroke: none; stroke-width: 1; stroke-dasharray: none; stroke-linecap: butt; stroke-linejoin: miter; stroke-miterlimit: 10; fill: rgb(0,0,0); fill-rule: nonzero; opacity: 1;" transform=" matrix(1 0 0 1 0 0) " stroke-linecap="round" />
	<path d="M 40.375 27.395 c -0.552 0 -1 -0.448 -1 -1 v -1.83 c 0 -0.552 0.448 -1 1 -1 c 0.552 0 1 0.448 1 1 v 1.83 C 41.375 26.948 40.927 27.395 40.375 27.395 z" style="stroke: none; stroke-width: 1; stroke-dasharray: none; stroke-linecap: butt; stroke-linejoin: miter; stroke-miterlimit: 10; fill: rgb(0,0,0); fill-rule: nonzero; opacity: 1;" transform=" matrix(1 0 0 1 0 0) " stroke-linecap="round" />
	<path d="M 49.625 27.395 c -0.553 0 -1 -0.448 -1 -1 v -1.83 c 0 -0.552 0.447 -1 1 -1 c 0.553 0 1 0.448 1 1 v 1.83 C 50.625 26.948 50.178 27.395 49.625 27.395 z" style="stroke: none; stroke-width: 1; stroke-dasharray: none; stroke-linecap: butt; stroke-linejoin: miter; stroke-miterlimit: 10; fill: rgb(0,0,0); fill-rule: nonzero; opacity: 1;" transform=" matrix(1 0 0 1 0 0) " stroke-linecap="round" />
	<path d="M 45.056 36.985 c -1.507 0 -3.033 -0.547 -4.536 -1.641 c -0.447 -0.325 -0.545 -0.951 -0.22 -1.397 c 0.325 -0.447 0.95 -0.546 1.397 -0.22 c 2.317 1.686 4.41 1.692 6.585 0.016 c 0.439 -0.336 1.066 -0.255 1.403 0.183 c 0.336 0.438 0.255 1.065 -0.183 1.402 C 48.067 36.433 46.57 36.985 45.056 36.985 z" style="stroke: none; stroke-width: 1; stroke-dasharray: none; stroke-linecap: butt; stroke-linejoin: miter; stroke-miterlimit: 10; fill: rgb(0,0,0); fill-rule: nonzero; opacity: 1;" transform=" matrix(1 0 0 1 0 0) " stroke-linecap="round" />
	<path d="M 57.262 21.919 c 5.42 -8.066 2.961 -13.564 -5.766 -17.018 c 0.19 -0.797 1.289 -1.594 3.024 -2.391 c -7.177 -2.696 -15.712 -2.08 -19.616 4.226 c -5.349 1.803 -6.987 7.79 -2.183 15.183 c 0.536 -9.048 6.41 -8.313 13.502 -5.344 c 3.586 1.372 6.699 1.231 9.634 0.774 C 57.46 17.048 57.381 19.902 57.262 21.919 z" style="stroke: none; stroke-width: 1; stroke-dasharray: none; stroke-linecap: butt; stroke-linejoin: miter; stroke-miterlimit: 10; fill: rgb(120,114,148); fill-rule: nonzero; opacity: 1;" transform=" matrix(1 0 0 1 0 0) " stroke-linecap="round" />
	<path d="M 57.262 22.919 c -0.106 0 -0.214 -0.017 -0.319 -0.052 c -0.428 -0.144 -0.705 -0.556 -0.679 -1.006 c 0.159 -2.729 -0.098 -3.407 -0.265 -3.57 c -2.795 0.482 -6.194 0.727 -10.135 -0.782 c -3.072 -1.286 -7.395 -2.807 -9.779 -1.322 c -1.394 0.869 -2.191 2.818 -2.367 5.791 c -0.025 0.431 -0.325 0.797 -0.742 0.908 c -0.417 0.11 -0.859 -0.06 -1.094 -0.422 c -2.769 -4.262 -3.667 -8.413 -2.527 -11.689 c 0.783 -2.249 2.512 -3.966 4.89 -4.865 c 4.4 -6.692 13.486 -7.018 20.627 -4.336 c 0.378 0.142 0.634 0.497 0.647 0.9 c 0.015 0.403 -0.215 0.776 -0.581 0.944 c -0.931 0.427 -1.511 0.783 -1.872 1.058 c 4.194 1.88 6.777 4.312 7.687 7.243 c 0.958 3.085 0.063 6.704 -2.66 10.757 C 57.903 22.759 57.589 22.919 57.262 22.919 z M 46.489 1.998 c -4.32 0 -8.404 1.501 -10.736 5.265 c -0.123 0.198 -0.31 0.347 -0.531 0.421 c -1.983 0.668 -3.359 1.964 -3.979 3.748 c -0.72 2.07 -0.393 4.648 0.911 7.434 c 0.52 -2.059 1.47 -3.502 2.872 -4.377 c 3.135 -1.954 7.836 -0.406 11.581 1.163 c 3.467 1.326 6.421 1.126 9.094 0.708 c 0.588 -0.108 1.177 0.04 1.62 0.431 c 0.41 0.361 0.667 0.876 0.816 1.54 c 1.007 -2.264 1.244 -4.28 0.704 -6.017 c -0.806 -2.594 -3.401 -4.775 -7.714 -6.482 c -0.463 -0.183 -0.72 -0.678 -0.605 -1.162 c 0.162 -0.68 0.643 -1.299 1.501 -1.911 C 50.216 2.271 48.331 1.998 46.489 1.998 z" style="stroke: none; stroke-width: 1; stroke-dasharray: none; stroke-linecap: butt; stroke-linejoin: miter; stroke-miterlimit: 10; fill: rgb(0,0,0); fill-rule: nonzero; opacity: 1;" transform=" matrix(1 0 0 1 0 0) " stroke-linecap="round" />
	<path d="M 44.977 43.521 c -0.834 0 -1.655 -0.144 -2.439 -0.427 c -5.779 -2.088 -9.843 -7.393 -10.356 -13.516 l -0.459 -7.598 c -0.034 -0.551 0.386 -1.025 0.938 -1.059 c 0.543 -0.042 1.025 0.386 1.059 0.938 l 0.458 7.575 c 0.446 5.324 3.995 9.957 9.041 11.78 c 1.131 0.409 2.386 0.409 3.519 0 c 5.045 -1.823 8.594 -6.455 9.043 -11.802 l 0.485 -7.556 c 0.035 -0.551 0.496 -0.975 1.063 -0.934 c 0.551 0.036 0.969 0.511 0.934 1.062 l -0.487 7.575 c -0.514 6.143 -4.578 11.448 -10.357 13.536 C 46.631 43.378 45.811 43.521 44.977 43.521 z" style="stroke: none; stroke-width: 1; stroke-dasharray: none; stroke-linecap: butt; stroke-linejoin: miter; stroke-miterlimit: 10; fill: rgb(0,0,0); fill-rule: nonzero; opacity: 1;" transform=" matrix(1 0 0 1 0 0) " stroke-linecap="round" />
</g>
</svg>